<svg id="Layer_1" data-name="Layer 1" xmlns="http://www.w3.org/2000/svg" xmlns:xlink="http://www.w3.org/1999/xlink" viewBox="0 0 261.64 72.47"><defs><style>.cls-1{fill:#57bb65;}.cls-2{fill:url(#linear-gradient);}.cls-3{opacity:0.5;fill:url(#linear-gradient-2);}.cls-4{opacity:0.3;fill:url(#linear-gradient-3);}.cls-5{fill:url(#linear-gradient-4);}.cls-6{fill:#636466;}</style><linearGradient id="linear-gradient" x1="198.77" y1="23.86" x2="253.66" y2="55.55" gradientUnits="userSpaceOnUse"><stop offset="0.06" stop-color="#c4da51"/><stop offset="0.48" stop-color="#35b558"/><stop offset="1" stop-color="#7ac470"/></linearGradient><linearGradient id="linear-gradient-2" x1="218.08" y1="6.82" x2="244.44" y2="64.92" gradientUnits="userSpaceOnUse"><stop offset="0" stop-color="#00b155"/><stop offset="0.33" stop-color="#fff456" stop-opacity="0.5"/><stop offset="0.76" stop-color="#00a651"/></linearGradient><linearGradient id="linear-gradient-3" x1="259.52" y1="23.66" x2="203.34" y2="47.74" gradientUnits="userSpaceOnUse"><stop offset="0.04" stop-color="#00b155"/><stop offset="0.23" stop-color="#cdde61" stop-opacity="0.5"/></linearGradient><linearGradient id="linear-gradient-4" x1="240" y1="72.47" x2="240" y2="1.66" gradientUnits="userSpaceOnUse"><stop offset="0.23" stop-color="#00b155" stop-opacity="0"/><stop offset="0.98" stop-color="#8cc74b"/></linearGradient></defs><title>Artboard 1 copy 7</title><path class="cls-1" d="M220.31,1.66c-.57,0-1.14,0-1.7,0v9c9.93,6.65,17.5,15.26,17.5,26.32s-7,21.21-17.5,26.32v9.05c.56,0,1.13,0,1.7,0,21.75,0,39.38-15.85,39.38-35.41S242.06,1.66,220.31,1.66Z"/><path class="cls-2" d="M211.36,71.62c.85.5,2.5.79,5.14.84a49.63,49.63,0,0,0,9.6-.76,45.35,45.35,0,0,0,21.14-9.65c7.3-6.11,12-14.4,12.43-23.55A29.7,29.7,0,0,0,258,27a35.11,35.11,0,0,0-10.71-14.95,45.36,45.36,0,0,0-21.13-9.65,49.79,49.79,0,0,0-9.61-.76c-2.64.05-4.29.34-5.14.84-3.84,2.28,8.48,9,17.8,17.87,5.2,5,9.48,10.67,9.48,16.69a13.29,13.29,0,0,1-.25,2.52C235.38,55.26,205.68,68.25,211.36,71.62Z"/><path class="cls-3" d="M218.81,62.94c-6.22,5.25-9.25,8.52-.52,8.79a46.22,46.22,0,0,0,11.85-1.23A43.39,43.39,0,0,0,249,60.78a38,38,0,0,0,8.72-11.29,33.35,33.35,0,0,0-1.43-32.59,38,38,0,0,0-6.17-7.67,41.17,41.17,0,0,0-7.18-5.53,45,45,0,0,0-4.23-2.26Q237.13.72,235.54.12c-1.66-.28-4-.21-4.23,1.7-.21,1.73,1.34,4.46,3.47,7.85C239.07,16.48,245.71,26,245,35.3c0,.26,0,.52-.08.79-.44,3.49-2,7.52-5.79,11.93C235.21,52.62,228.84,57.65,218.81,62.94Z"/><path class="cls-4" d="M218.81,62.94c-6.22,5.25-9.25,8.52-.52,8.79a46.22,46.22,0,0,0,11.85-1.23A43.39,43.39,0,0,0,249,60.78a38,38,0,0,0,8.72-11.29,33.35,33.35,0,0,0-1.43-32.59,38,38,0,0,0-6.17-7.67,41.17,41.17,0,0,0-7.18-5.53,45,45,0,0,0-4.23-2.26Q237.13.72,235.54.12c-1.66-.28-4-.21-4.23,1.7-.21,1.73,1.34,4.46,3.47,7.85C239.07,16.48,245.71,26,245,35.3c0,.26,0,.52-.08.79-.44,3.49-2,7.52-5.79,11.93C235.21,52.62,228.84,57.65,218.81,62.94Z"/><path class="cls-5" d="M220.31,1.66a35.41,35.41,0,0,1,0,70.81c21.75,0,39.38-15.85,39.38-35.41S242.06,1.66,220.31,1.66Z"/><path class="cls-6" d="M18,68.9a28,28,0,0,1-16.32-5L4.1,59.73a23,23,0,0,0,13.82,4.58q6,0,9.55-3.29T31,51.53V47.3q-5.7,7.56-14.1,7.57A16.82,16.82,0,0,1,5,50.18,16,16,0,0,1,0,37.92,15.91,15.91,0,0,1,5.07,25.66,16.84,16.84,0,0,1,16.88,21a16.78,16.78,0,0,1,14,7.22V21.73h5.35V51.39q0,8.13-4.58,12.72Q26.88,68.9,18,68.9Zm-.07-18.76a13.55,13.55,0,0,0,9.24-3.47,11.2,11.2,0,0,0,4-8.82A11.06,11.06,0,0,0,27.2,29.1a13.71,13.71,0,0,0-9.28-3.41,12.43,12.43,0,0,0-8.85,3.37,11.6,11.6,0,0,0-3.58,8.86,11.56,11.56,0,0,0,3.64,8.75A12.28,12.28,0,0,0,17.92,50.14Z"/><path class="cls-6" d="M40.73,57.65V21.73h5.35v9.38A18.13,18.13,0,0,1,52,23.68a13.47,13.47,0,0,1,8.75-2.57v5.76h-.42a13.39,13.39,0,0,0-10.21,4.31q-4,4.31-4,12.16V57.65Z"/><path class="cls-6" d="M91.67,53a18.07,18.07,0,0,1-13.41,5.52A17.73,17.73,0,0,1,65,53a18.4,18.4,0,0,1-5.32-13.27A18.28,18.28,0,0,1,65,26.49,17.92,17.92,0,0,1,78.4,21a17.88,17.88,0,0,1,13.34,5.49,18.33,18.33,0,0,1,5.35,13.26A18.25,18.25,0,0,1,91.67,53Zm-13.27.73a12.36,12.36,0,0,0,9.48-4,14.11,14.11,0,0,0,3.72-9.94,14,14,0,0,0-3.86-9.93,12.51,12.51,0,0,0-9.48-4.1,12.19,12.19,0,0,0-9.45,4.07,14.32,14.32,0,0,0-3.68,10A13.91,13.91,0,0,0,69,49.62,12.46,12.46,0,0,0,78.4,53.69Z"/><path class="cls-6" d="M108.05,57.92,95.47,21.73h5.7l9.45,28.83,9.65-29h4.45l9.72,29,9.45-28.83h5.56L136.81,57.92h-4.66L122.5,29.58l-9.73,28.34Z"/><path class="cls-6" d="M165.37,13.88V8h6.11v5.9Zm.35,43.77V21.73h5.35V57.65Z"/><path class="cls-6" d="M190,58.27a10.64,10.64,0,0,1-7.39-2.46q-2.75-2.48-2.75-7.68V26.46h-5V21.73h5V10.9h5.35V21.73h11.39v4.73H185.25v21q0,6,6,6a11.84,11.84,0,0,0,5.21-1.25v4.58A13.66,13.66,0,0,1,190,58.27Z"/></svg>